# xmcd
#
# Track frame offsets:
#	150
#	15969
#	33777
#	49587
#	65197
#	79447
#	96560
#	113727
#	129847
#	147456
#	166057
#	183784
#	201044
#	216855
#
# Disc length: 3139 seconds
#
# Revision: 10
# Processed by: cddbd v1.5.2PL0 Copyright (c) Steve Scherf et al.
# Submitted via: Jack! The Knife 20 Magnifico
#
DISCID=bc0c410e
DTITLE=Laura Pausini - Primavera In Anticipo
DYEAR=2008
DGENRE=Pop
TTITLE0=Mille Braccia
TTITLE1=Invece No
TTITLE2=Primavera In Anticipo (It's My Song)
TTITLE3=Nel Modo Più Sincero Che C'è
TTITLE4=Un Fatto Ovvio
TTITLE5=Il Mio Beneficio
TTITLE6=Prima Che Esci
TTITLE7=Più Di Ieri
TTITLE8=Bellissimo Così
TTITLE9=L'Impressione
TTITLE10=La Geografia Del Mio Cammino
TTITLE11=Ogni Colore Al Cielo
TTITLE12=Primavera In Anticipo
TTITLE13=Sorella Terra
EXTD=Gabriele Parisi
EXTT0=Paolo Carta
EXTT1=Pausini, Carta
EXTT2=Daniel Vuletic
EXTT3=Daniel Vuletic
EXTT4=Daniel Vuletic
EXTT5=Daniel Vuletic
EXTT6=Gianluca Grignani
EXTT7=Daniel Vuletic
EXTT8=Fratoni, Coro
EXTT9=Daniel Vuletic
EXTT10=Pausini, Carta
EXTT11=Galbiati, Fratoni, Carta
EXTT12=Daniel Vuletic
EXTT13=Daniel Vuletic
PLAYORDER=
